<svg width="110" height="27" viewBox="0 0 110 27" fill="none" xmlns="http://www.w3.org/2000/svg">
<path d="M9.26 7.964C10.244 7.964 11.204 8.108 12.14 8.396C13.1 8.66 13.928 9.068 14.624 9.62C15.344 9.14 16.148 8.744 17.036 8.432C17.948 8.12 19.04 7.964 20.312 7.964C21.224 7.964 22.112 8.084 22.976 8.324C23.864 8.564 24.644 8.948 25.316 9.476C26.012 9.98 26.564 10.664 26.972 11.528C27.38 12.368 27.584 13.4 27.584 14.624V25.964C27.344 26.036 26.96 26.108 26.432 26.18C25.928 26.252 25.4 26.288 24.848 26.288C24.32 26.288 23.84 26.252 23.408 26.18C23 26.108 22.652 25.964 22.364 25.748C22.076 25.532 21.848 25.244 21.68 24.884C21.536 24.5 21.464 24.008 21.464 23.408V14.804C21.464 14.084 21.26 13.568 20.852 13.256C20.444 12.92 19.892 12.752 19.196 12.752C18.86 12.752 18.5 12.836 18.116 13.004C17.732 13.148 17.444 13.304 17.252 13.472C17.276 13.568 17.288 13.664 17.288 13.76C17.288 13.832 17.288 13.904 17.288 13.976V25.964C17.024 26.036 16.628 26.108 16.1 26.18C15.596 26.252 15.08 26.288 14.552 26.288C14.024 26.288 13.544 26.252 13.112 26.18C12.704 26.108 12.356 25.964 12.068 25.748C11.78 25.532 11.552 25.244 11.384 24.884C11.24 24.5 11.168 24.008 11.168 23.408V14.804C11.168 14.084 10.94 13.568 10.484 13.256C10.052 12.92 9.524 12.752 8.9 12.752C8.468 12.752 8.096 12.824 7.784 12.968C7.472 13.088 7.208 13.208 6.992 13.328V25.964C6.752 26.036 6.368 26.108 5.84 26.18C5.336 26.252 4.808 26.288 4.256 26.288C3.728 26.288 3.248 26.252 2.816 26.18C2.408 26.108 2.06 25.964 1.772 25.748C1.484 25.532 1.256 25.244 1.088 24.884C0.944 24.5 0.872 24.008 0.872 23.408V12.536C0.872 11.888 1.004 11.372 1.268 10.988C1.556 10.604 1.94 10.244 2.42 9.908C3.236 9.332 4.244 8.864 5.444 8.504C6.668 8.144 7.94 7.964 9.26 7.964ZM31.3173 8.756C31.5573 8.684 31.9293 8.612 32.4333 8.54C32.9613 8.468 33.5013 8.432 34.0533 8.432C34.5813 8.432 35.0493 8.468 35.4573 8.54C35.8893 8.612 36.2493 8.756 36.5373 8.972C36.8253 9.188 37.0413 9.488 37.1853 9.872C37.3533 10.232 37.4373 10.712 37.4373 11.312V19.052C37.4373 20.036 37.6773 20.744 38.1573 21.176C38.6373 21.584 39.3333 21.788 40.2453 21.788C40.7973 21.788 41.2413 21.74 41.5773 21.644C41.9373 21.548 42.2133 21.452 42.4053 21.356V8.756C42.6453 8.684 43.0173 8.612 43.5213 8.54C44.0493 8.468 44.5893 8.432 45.1413 8.432C45.6693 8.432 46.1373 8.468 46.5453 8.54C46.9773 8.612 47.3373 8.756 47.6253 8.972C47.9133 9.188 48.1293 9.488 48.2733 9.872C48.4413 10.232 48.5253 10.712 48.5253 11.312V22.256C48.5253 23.456 48.0213 24.356 47.0133 24.956C46.1733 25.484 45.1653 25.88 43.9893 26.144C42.8373 26.432 41.5773 26.576 40.2093 26.576C38.9133 26.576 37.7133 26.432 36.6093 26.144C35.5293 25.856 34.5933 25.412 33.8013 24.812C33.0093 24.212 32.3973 23.444 31.9653 22.508C31.5333 21.548 31.3173 20.396 31.3173 19.052V8.756ZM52.3424 8.504C52.3424 7.28 52.5464 6.236 52.9544 5.372C53.3864 4.484 53.9624 3.764 54.6824 3.212C55.4024 2.636 56.2424 2.216 57.2024 1.952C58.1864 1.688 59.2304 1.556 60.3344 1.556C62.1104 1.556 63.4184 1.796 64.2584 2.276C65.0984 2.732 65.5184 3.524 65.5184 4.652C65.5184 5.132 65.4104 5.564 65.1944 5.948C65.0024 6.332 64.7864 6.62 64.5464 6.812C64.0904 6.692 63.6104 6.596 63.1064 6.524C62.6264 6.428 62.0624 6.38 61.4144 6.38C60.3824 6.38 59.5784 6.56 59.0024 6.92C58.4264 7.256 58.1384 7.856 58.1384 8.72V9.872H64.0424C64.1864 10.136 64.3184 10.472 64.4384 10.88C64.5824 11.264 64.6544 11.696 64.6544 12.176C64.6544 13.016 64.4624 13.628 64.0784 14.012C63.7184 14.372 63.2264 14.552 62.6024 14.552H58.4624V25.964C58.2224 26.036 57.8384 26.108 57.3104 26.18C56.8064 26.252 56.2784 26.288 55.7264 26.288C55.1984 26.288 54.7184 26.252 54.2864 26.18C53.8784 26.108 53.5304 25.964 53.2424 25.748C52.9544 25.532 52.7264 25.244 52.5584 24.884C52.4144 24.5 52.3424 24.008 52.3424 23.408V8.504ZM67.2838 8.504C67.2838 7.28 67.4878 6.236 67.8958 5.372C68.3278 4.484 68.9038 3.764 69.6238 3.212C70.3438 2.636 71.1838 2.216 72.1438 1.952C73.1278 1.688 74.1718 1.556 75.2758 1.556C77.0518 1.556 78.3598 1.796 79.1998 2.276C80.0398 2.732 80.4598 3.524 80.4598 4.652C80.4598 5.132 80.3518 5.564 80.1358 5.948C79.9438 6.332 79.7278 6.62 79.4878 6.812C79.0318 6.692 78.5518 6.596 78.0478 6.524C77.5678 6.428 77.0038 6.38 76.3558 6.38C75.3238 6.38 74.5198 6.56 73.9438 6.92C73.3678 7.256 73.0798 7.856 73.0798 8.72V9.872H78.9838C79.1278 10.136 79.2598 10.472 79.3798 10.88C79.5238 11.264 79.5958 11.696 79.5958 12.176C79.5958 13.016 79.4038 13.628 79.0198 14.012C78.6598 14.372 78.1678 14.552 77.5438 14.552H73.4038V25.964C73.1638 26.036 72.7798 26.108 72.2518 26.18C71.7478 26.252 71.2198 26.288 70.6678 26.288C70.1398 26.288 69.6598 26.252 69.2278 26.18C68.8198 26.108 68.4718 25.964 68.1838 25.748C67.8958 25.532 67.6678 25.244 67.4998 24.884C67.3558 24.5 67.2838 24.008 67.2838 23.408V8.504ZM82.4398 3.644C82.4398 2.732 82.7398 1.964 83.3398 1.34C83.9638 0.715999 84.7798 0.403999 85.7878 0.403999C86.7958 0.403999 87.5998 0.715999 88.1998 1.34C88.8238 1.964 89.1358 2.732 89.1358 3.644C89.1358 4.556 88.8238 5.324 88.1998 5.948C87.5998 6.572 86.7958 6.884 85.7878 6.884C84.7798 6.884 83.9638 6.572 83.3398 5.948C82.7398 5.324 82.4398 4.556 82.4398 3.644ZM88.8478 25.964C88.5838 26.012 88.1878 26.072 87.6598 26.144C87.1558 26.24 86.6398 26.288 86.1118 26.288C85.5838 26.288 85.1038 26.252 84.6718 26.18C84.2638 26.108 83.9158 25.964 83.6278 25.748C83.3398 25.532 83.1118 25.244 82.9438 24.884C82.7998 24.5 82.7278 24.008 82.7278 23.408V8.756C82.9918 8.708 83.3758 8.648 83.8798 8.576C84.4078 8.48 84.9358 8.432 85.4638 8.432C85.9918 8.432 86.4598 8.468 86.8678 8.54C87.2998 8.612 87.6598 8.756 87.9478 8.972C88.2358 9.188 88.4518 9.488 88.5958 9.872C88.7638 10.232 88.8478 10.712 88.8478 11.312V25.964ZM103.823 14.912C103.823 14.168 103.607 13.628 103.175 13.292C102.767 12.932 102.203 12.752 101.483 12.752C101.003 12.752 100.523 12.812 100.043 12.932C99.5873 13.052 99.1913 13.232 98.8553 13.472V25.964C98.6153 26.036 98.2313 26.108 97.7033 26.18C97.1993 26.252 96.6713 26.288 96.1193 26.288C95.5913 26.288 95.1113 26.252 94.6793 26.18C94.2713 26.108 93.9233 25.964 93.6353 25.748C93.3473 25.532 93.1193 25.244 92.9513 24.884C92.8073 24.5 92.7353 24.008 92.7353 23.408V12.608C92.7353 11.96 92.8673 11.432 93.1313 11.024C93.4193 10.616 93.8033 10.244 94.2833 9.908C95.0993 9.332 96.1193 8.864 97.3433 8.504C98.5913 8.144 99.9713 7.964 101.483 7.964C104.195 7.964 106.283 8.564 107.747 9.764C109.211 10.94 109.943 12.584 109.943 14.696V25.964C109.703 26.036 109.319 26.108 108.791 26.18C108.287 26.252 107.759 26.288 107.207 26.288C106.679 26.288 106.199 26.252 105.767 26.18C105.359 26.108 105.011 25.964 104.723 25.748C104.435 25.532 104.207 25.244 104.039 24.884C103.895 24.5 103.823 24.008 103.823 23.408V14.912Z" fill="hsl(var(--nextui-secondary))"/>
</svg>
